PathFileType	4	(X/Y/Z)	/Users/itak/Documents/Research/Walk-IL/dataset/trc/00159_00008.trc
DataRate	CameraRate	NumFrames	NumMarkers	Units	OrigDataRate	OrigDataStartFrame	OrigNumFrames
100.000000	100.000000	4	53	mm	100.000000	207	554
Frame#	Time	RPSI			LPSI			L3			STRN			T10			C7			CLAV			RBAK			LBAK			LSHO			LUPA			LAEL			LAOL			LWTS			LWPS			LFRA			LIFD			LHPS			LHTS			RSHO			RUPA			RAEL			RAOL			RWTS			RWPS			RFRA			RIFD			RHTS			RHPS			RBHD			LFHD			RFHD			LBHD			LHIP			RHIP			RASI			LASI			LKNE			LTHI			LANK			LTIP			LTOE			LMT1			LMT5			LHEE			RKNE			RTHI			RANK			RTIP			RTOE			RMT1			RMT5			RHEE			
		X1	Y1	Z1	X2	Y2	Z2	X3	Y3	Z3	X4	Y4	Z4	X5	Y5	Z5	X6	Y6	Z6	X7	Y7	Z7	X8	Y8	Z8	X9	Y9	Z9	X10	Y10	Z10	X11	Y11	Z11	X12	Y12	Z12	X13	Y13	Z13	X14	Y14	Z14	X15	Y15	Z15	X16	Y16	Z16	X17	Y17	Z17	X18	Y18	Z18	X19	Y19	Z19	X20	Y20	Z20	X21	Y21	Z21	X22	Y22	Z22	X23	Y23	Z23	X24	Y24	Z24	X25	Y25	Z25	X26	Y26	Z26	X27	Y27	Z27	X28	Y28	Z28	X29	Y29	Z29	X30	Y30	Z30	X31	Y31	Z31	X32	Y32	Z32	X33	Y33	Z33	X34	Y34	Z34	X35	Y35	Z35	X36	Y36	Z36	X37	Y37	Z37	X38	Y38	Z38	X39	Y39	Z39	X40	Y40	Z40	X41	Y41	Z41	X42	Y42	Z42	X43	Y43	Z43	X44	Y44	Z44	X45	Y45	Z45	X46	Y46	Z46	X47	Y47	Z47	X48	Y48	Z48	X49	Y49	Z49	X50	Y50	Z50	X51	Y51	Z51	X52	Y52	Z52	X53	Y53	Z53	

208	2.07	-1340.291137695312	1059.082153320312	5.16627025604248	-1325.100830078125	1064.486572265625	-116.7343826293945	-1330.979614257812	1101.438110351562	-52.58684539794922	-1055.983276367188	1288.659301757812	-37.00212860107422	-1351.653930664062	1266.009887695312	-64.67448425292969	-1259.175170898438	1526.664306640625	-84.15924072265625	-1070.640502929688	1403.984619140625	-56.07252502441406	-1352.374633789062	1365.920654296875	29.23684501647949	-1259.214477539062	1497.334228515625	-184.2112121582031	-1176.192626953125	1472.58447265625	-253.6403045654297	-1209.029296875	1339.920776367188	-324.6044311523438	-1198.455078125	1123.635498046875	-341.8710021972656	-1250.3271484375	1108.735961914062	-272.3279418945312	-1089.127319335938	892.7068481445312	-304.2617797851562	-1166.6552734375	871.9734497070312	-350.4856567382812	-1183.687133789062	1013.984375	-354.7002258300781	-1080.7646484375	716.5094604492188	-275.0385131835938	-1144.729858398438	802.70068359375	-346.2294921875	-1075.701049804688	815.0423583984375	-324.767822265625	-1213.512817382812	1511.893310546875	102.7157897949219	-1242.405517578125	1450.280883789062	174.6399841308594	-1263.606201171875	1160.018920898438	243.0423431396484	-1272.165649414062	1152.283081054688	145.2713470458984	-1097.91943359375	951.9345092773438	203.3894195556641	-1165.53662109375	922.1195068359375	253.2431030273438	-1229.905395507812	1087.239379882812	257.1130065917969	-1061.368041992188	769.2232055664062	168.9709625244141	-1058.7294921875	862.0237426757812	205.2832794189453	-1129.6591796875	844.0380859375	245.0753173828125	-1190.451782226562	1682.735229492188	-11.20894336700439	-1029.311279296875	1711.88427734375	-154.2065582275391	-1020.457336425781	1719.809448242188	-25.24967002868652	-1205.665405273438	1681.82568359375	-148.5336761474609	-1208.158203125	1005.17431640625	-221.2238922119141	-1212.23828125	1000.489074707031	150.4580535888672	-1125.832275390625	1034.26904296875	107.1816329956055	-1091.578491210938	1034.265014648438	-149.3421325683594	-1153.627075195312	503.789306640625	-166.8033447265625	-1161.4072265625	645.881103515625	-200.2427215576172	-1210.945678710938	38.09139251708984	-143.0954742431641	-1176.049072265625	273.9752197265625	-168.4272766113281	-992.524169921875	45.54047393798828	-115.1833953857422	-1040.600219726562	45.89735794067383	-66.28618621826172	-1101.876586914062	34.61988830566406	-178.7353820800781	-1260.396240234375	41.56072998046875	-72.70443725585938	-1103.501953125	503.5527954101562	155.1769256591797	-1132.383911132812	780.3619384765625	166.2831573486328	-1491.556030273438	203.8373870849609	103.3200759887695	-1154.592041015625	389.6828002929688	135.5524749755859	-1327.573974609375	58.00028610229492	121.9429779052734	-1356.424438476562	88.91178894042969	63.30589294433594	-1426.581420898438	122.8723373413086	158.4228210449219	-1510.403686523438	235.8382568359375	27.40091705322266	
209	2.08	-1333.228759765625	1059.271850585938	4.052385807037354	-1318.029418945312	1064.578369140625	-117.8485260009766	-1323.879150390625	1101.640869140625	-53.92764282226562	-1048.683349609375	1288.958740234375	-37.46160507202148	-1344.240478515625	1266.359008789062	-66.45957946777344	-1251.578002929688	1526.940307617188	-85.36215972900391	-1063.191772460938	1404.36181640625	-56.41119766235352	-1345.267700195312	1366.16015625	27.48882675170898	-1251.1142578125	1497.754638671875	-185.4606170654297	-1167.685913085938	1473.20361328125	-254.3699035644531	-1199.259033203125	1340.516845703125	-325.7825012207031	-1186.316528320312	1124.462646484375	-343.7742004394531	-1238.445434570312	1108.68408203125	-274.6780700683594	-1074.4814453125	894.7053833007812	-306.5290832519531	-1151.740356445312	873.20361328125	-353.1119384765625	-1170.2626953125	1015.182006835938	-356.9704284667969	-1063.472778320312	718.9100952148438	-278.00390625	-1128.81787109375	804.1648559570312	-349.1246032714844	-1060.115600585938	817.3204956054688	-327.3565368652344	-1206.75830078125	1512.041625976562	101.7552108764648	-1236.021728515625	1450.3779296875	173.4768218994141	-1257.24462890625	1159.9453125	241.7110137939453	-1265.317016601562	1152.35400390625	143.8644561767578	-1089.224243164062	953.7628173828125	202.0733489990234	-1156.630981445312	922.8141479492188	251.3920593261719	-1223.024536132812	1087.27392578125	255.6920776367188	-1050.111572265625	771.7723999023438	166.9193878173828	-1048.895874023438	864.3888549804688	203.7660827636719	-1119.804931640625	845.27197265625	242.9680480957031	-1182.808837890625	1683.121948242188	-12.00328063964844	-1021.191040039062	1711.853637695312	-154.4686737060547	-1012.742309570312	1719.905517578125	-25.46620941162109	-1197.603515625	1682.060424804688	-149.3799743652344	-1201.66162109375	1004.724487304688	-222.3150787353516	-1204.56494140625	1001.705871582031	149.5145263671875	-1118.525634765625	1034.9326171875	105.6489028930664	-1084.596923828125	1034.084716796875	-151.0677032470703	-1151.863525390625	503.4335632324219	-167.6810760498047	-1158.197631835938	645.5086669921875	-201.001708984375	-1211.022827148438	38.08847045898438	-143.1099853515625	-1175.528076171875	273.8725891113281	-168.8650512695312	-992.3875732421875	45.17654037475586	-115.5039520263672	-1040.555297851562	45.90582656860352	-66.53080749511719	-1101.923095703125	34.32433700561523	-179.0986633300781	-1260.479736328125	41.72842407226562	-72.73812866210938	-1085.582885742188	506.9462280273438	154.7684020996094	-1121.1767578125	783.1070556640625	165.7942352294922	-1465.206665039062	196.7545318603516	102.3971099853516	-1134.088500976562	391.8451232910156	135.0609588623047	-1295.582885742188	57.65116882324219	122.2522354125977	-1325.75634765625	86.79501342773438	63.35275650024414	-1397.24853515625	118.9470977783203	158.2882080078125	-1485.319213867188	227.2999114990234	26.22879028320312	
210	2.09	-1326.137084960938	1059.372680664062	3.100197553634644	-1311.001953125	1064.58056640625	-118.8100738525391	-1316.7763671875	1101.748413085938	-55.13622665405273	-1041.376708984375	1289.151733398438	-37.93782806396484	-1336.822265625	1266.622680664062	-68.17463684082031	-1243.981811523438	1527.14306640625	-86.50022888183594	-1055.7470703125	1404.638671875	-56.74370574951172	-1338.141235351562	1366.296020507812	25.80507659912109	-1243.028076171875	1498.114379882812	-186.6568450927734	-1159.2099609375	1473.767456054688	-255.0580291748047	-1189.5341796875	1341.0859375	-326.9209594726562	-1174.277954101562	1125.2724609375	-345.5685424804688	-1226.635986328125	1108.627197265625	-276.9099731445312	-1059.928344726562	896.716552734375	-308.6539306640625	-1136.918090820312	874.4288940429688	-355.5559997558594	-1156.949340820312	1016.384826660156	-359.1230773925781	-1046.348022460938	721.3338623046875	-280.8159790039062	-1113.002075195312	805.654052734375	-351.8254699707031	-1044.597534179688	819.6235961914062	-329.8106079101562	-1199.97314453125	1512.066650390625	100.8436050415039	-1229.597290039062	1450.340576171875	172.3555908203125	-1250.988525390625	1159.7998046875	240.5043334960938	-1258.61669921875	1152.329223632812	142.5760955810547	-1080.715087890625	955.523681640625	200.8060607910156	-1147.813354492188	923.4583129882812	249.7133483886719	-1216.255126953125	1087.231201171875	254.4002532958984	-1039.04150390625	774.2838745117188	164.9943542480469	-1039.210571289062	866.7216796875	202.3243103027344	-1110.01953125	846.4771728515625	241.0158233642578	-1175.17138671875	1683.37744140625	-12.6708288192749	-1013.085693359375	1711.794677734375	-154.5957641601562	-1005.030456542969	1719.892456054688	-25.54007339477539	-1189.544799804688	1682.247802734375	-150.1014709472656	-1195.292602539062	1004.198791503906	-223.3343963623047	-1196.64892578125	1002.868530273438	148.6412658691406	-1111.106811523438	1035.485595703125	104.0843276977539	-1077.659057617188	1033.85302734375	-152.8212127685547	-1149.977294921875	503.0595092773438	-168.4563751220703	-1154.87451171875	645.1084594726562	-201.6652526855469	-1211.072387695312	38.08188629150391	-143.0608367919922	-1174.907836914062	273.764404296875	-169.2257690429688	-992.2228393554688	44.77939224243164	-115.823600769043	-1040.480346679688	45.89763641357422	-66.7803955078125	-1101.9892578125	34.03526306152344	-179.4546813964844	-1260.489379882812	41.87492370605469	-72.70252990722656	-1067.906982421875	510.4428405761719	154.2481536865234	-1109.900268554688	785.8698120117188	165.2550354003906	-1438.061889648438	188.776611328125	101.7118682861328	-1113.67236328125	394.0306701660156	134.5081787109375	-1262.77197265625	57.02906036376953	122.4839019775391	-1294.218872070312	84.40100860595703	63.39864349365234	-1367.141235351562	114.3355484008789	158.2715606689453	-1459.50537109375	217.8528594970703	25.31688499450684	
211	2.1	-1319.00830078125	1059.389404296875	2.298976182937622	-1304.00341796875	1064.485717773438	-119.6257781982422	-1309.658569335938	1101.758056640625	-56.21062850952148	-1034.054931640625	1289.23388671875	-38.43407821655273	-1329.39453125	1266.79833984375	-69.81200408935547	-1236.373901367188	1527.266479492188	-87.57042694091797	-1048.292846679688	1404.808471679688	-57.07346343994141	-1330.98876953125	1366.3271484375	24.19057083129883	-1234.952514648438	1498.4072265625	-187.7962188720703	-1150.756713867188	1474.267822265625	-255.7032623291016	-1179.861328125	1341.623413085938	-328.0273132324219	-1162.350952148438	1126.05712890625	-347.2666625976562	-1214.923461914062	1108.560180664062	-279.0405578613281	-1045.484497070312	898.7330322265625	-310.6261291503906	-1122.18994140625	875.6361694335938	-357.8152160644531	-1143.755737304688	1017.56640625	-361.1564331054688	-1029.4697265625	723.7349243164062	-283.4659118652344	-1097.29541015625	807.1589965820312	-354.3171691894531	-1029.16357421875	821.94091796875	-332.1009826660156	-1193.1455078125	1511.96826171875	99.97737121582031	-1223.115112304688	1450.163208007812	171.2781829833984	-1244.820922851562	1159.578002929688	239.3994140625	-1252.034790039062	1152.203979492188	141.3842926025391	-1072.385864257812	957.1885986328125	199.6161804199219	-1139.109375	924.0446166992188	248.2145080566406	-1209.5849609375	1087.106201171875	253.2257080078125	-1028.152709960938	776.7350463867188	163.259033203125	-1029.6826171875	868.9984741210938	201.0098571777344	-1100.3447265625	847.6321411132812	239.2538909912109	-1167.541381835938	1683.492919921875	-13.21497631072998	-1004.987121582031	1711.7109375	-154.5871124267578	-997.3269653320312	1719.769653320312	-25.47655487060547	-1181.487060546875	1682.385498046875	-150.7026977539062	-1189.009765625	1003.599853515625	-224.2812652587891	-1188.54150390625	1003.957336425781	147.8174438476562	-1103.585815429688	1035.92626953125	102.5072402954102	-1070.7412109375	1033.566650390625	-154.5729064941406	-1147.95556640625	502.6665649414062	-169.111083984375	-1151.41455078125	644.6800537109375	-202.220703125	-1211.091918945312	38.07586288452148	-142.9384460449219	-1174.179931640625	273.6495361328125	-169.4966735839844	-992.0338745117188	44.36084365844727	-116.1259460449219	-1040.38671875	45.86254119873047	-67.01831817626953	-1102.071899414062	33.76668167114258	-179.7862854003906	-1260.413940429688	41.98258590698242	-72.57954406738281	-1050.507934570312	513.9976196289062	153.6162261962891	-1098.589721679688	788.6163330078125	164.6663360595703	-1410.160278320312	180.0610809326172	101.2562255859375	-1093.365356445312	396.2225646972656	133.8920288085938	-1229.274658203125	56.29428863525391	122.7723236083984	-1261.899536132812	81.83917999267578	63.52567291259766	-1336.260375976562	109.2739944458008	158.4312591552734	-1432.9453125	207.6010284423828	24.60430145263672	
